<?xml version="1.0" encoding="UTF-8" standalone="no"?>
<!-- Created with Inkscape (http://www.inkscape.org/) -->

<svg
   version="1.1"
   id="svg1"
   width="1457.3333"
   height="224"
   viewBox="0 0 1457.3333 224"
   xml:space="preserve"
   xmlns:xlink="http://www.w3.org/1999/xlink"
   xmlns="http://www.w3.org/2000/svg"
   xmlns:svg="http://www.w3.org/2000/svg"><defs
     id="defs1"><linearGradient
       id="linearGradient10"><stop
         style="stop-color:#f87782;stop-opacity:1;"
         offset="0"
         id="stop10" /><stop
         style="stop-color:#f37475;stop-opacity:0.30000001;"
         offset="1"
         id="stop11" /></linearGradient><linearGradient
       id="linearGradient6"><stop
         style="stop-color:#c0d7d5;stop-opacity:1;"
         offset="0"
         id="stop6" /><stop
         style="stop-color:#b9e2d9;stop-opacity:0.05;"
         offset="1"
         id="stop7" /></linearGradient><linearGradient
       id="linearGradient4"><stop
         style="stop-color:#fcb4b5;stop-opacity:1;"
         offset="0"
         id="stop4" /><stop
         style="stop-color:#fdb2b1;stop-opacity:0;"
         offset="1"
         id="stop5" /></linearGradient><linearGradient
       id="linearGradient2"><stop
         style="stop-color:#c8cdf7;stop-opacity:1;"
         offset="0"
         id="stop2" /><stop
         style="stop-color:#cad3fb;stop-opacity:0.05;"
         offset="1"
         id="stop3" /></linearGradient><linearGradient
       xlink:href="#linearGradient2"
       id="linearGradient3"
       x1="1457.6891"
       y1="125.57637"
       x2="487.16647"
       y2="172.13669"
       gradientUnits="userSpaceOnUse" /><linearGradient
       xlink:href="#linearGradient4"
       id="linearGradient5"
       x1="1462.3748"
       y1="56.861843"
       x2="774.87811"
       y2="387.73434"
       gradientUnits="userSpaceOnUse"
       spreadMethod="reflect" /><linearGradient
       xlink:href="#linearGradient6"
       id="linearGradient7"
       x1="0"
       y1="128.07369"
       x2="1280.8501"
       y2="93.02816"
       gradientUnits="userSpaceOnUse" /><filter
       style="color-interpolation-filters:sRGB"
       id="filter7"
       x="-0.0019825172"
       y="-0.021449026"
       width="1.002566"
       height="1.0424005"><feGaussianBlur
         stdDeviation="0.26063374"
         id="feGaussianBlur7" /></filter><filter
       style="color-interpolation-filters:sRGB"
       id="filter8"
       x="-0.00027456634"
       y="-0.0019253717"
       width="1.0005491"
       height="1.0038507"><feGaussianBlur
         stdDeviation="0.16672275"
         id="feGaussianBlur8" /></filter><filter
       style="color-interpolation-filters:sRGB"
       id="filter9"
       x="-1.8713175e-06"
       y="-0.0023632709"
       width="1.0000037"
       height="1.0047265"><feGaussianBlur
         stdDeviation="0.001 0.143"
         id="feGaussianBlur9" /></filter><filter
       style="color-interpolation-filters:sRGB"
       id="filter10"
       x="-0.00027076841"
       y="-0.002112049"
       width="1.0005415"
       height="1.0042241"><feGaussianBlur
         stdDeviation="0.10969814"
         id="feGaussianBlur10" /></filter><linearGradient
       xlink:href="#linearGradient10"
       id="linearGradient11"
       x1="589.22992"
       y1="93.415382"
       x2="1121.7421"
       y2="110.10373"
       gradientUnits="userSpaceOnUse"
       spreadMethod="reflect" /><radialGradient
       xlink:href="#linearGradient9"
       id="radialGradient10"
       cx="270.88025"
       cy="111.72676"
       fx="270.88025"
       fy="111.72676"
       r="38.101646"
       gradientTransform="matrix(3.7795276,0,0,2.5477292,288.77565,-185.59798)"
       gradientUnits="userSpaceOnUse" /><linearGradient
       id="linearGradient9"><stop
         style="stop-color:#ffdee7;stop-opacity:0.5;"
         offset="0"
         id="stop9" /><stop
         style="stop-color:#ff7799;stop-opacity:0;"
         offset="1"
         id="stop10-6" /></linearGradient></defs><g
     id="g1"><path
       style="display:inline;opacity:1;mix-blend-mode:normal;fill:url(#linearGradient7);stroke:none;stroke-width:0.1;stroke-linecap:round;stroke-linejoin:round;stroke-dasharray:none;stroke-opacity:1;filter:url(#filter9)"
       d="M 0,176.535 V 69.71781 c 0,0 83.394381,-14.985698 125.46728,-14.041085 C 322.8995,60.109438 513.93744,164.91276 710.68735,147.92446 799.44391,140.26081 875.12402,71.67509 963.64761,61.673447 1069.8353,49.67606 1282.5189,94.82506 1282.5189,94.82506 c -78.9465,12.94843 -118.7728,16.02846 -156.8586,13.57963 -35.1258,16.8037 -66.3595,37.83607 -124.0993,55.98231 C 875.7366,203.9306 764.81026,203.62247 702.20258,198.37043 631.60438,192.44807 562.00492,177.83592 491.98037,167.07751 438.31752,158.83287 385.38336,143.00209 331.10919,141.59135 220.164,138.70756 109.70464,160.05493 0,176.535 Z"
       id="path5" /><path
       style="display:inline;opacity:1;fill:url(#linearGradient3);stroke:none;stroke-width:0.1;stroke-linecap:round;stroke-linejoin:round;stroke-dasharray:none;stroke-opacity:1;filter:url(#filter10)"
       d="m 1457.333,65.766048 c -68.1854,5.311827 -193.4379,38.663292 -291.5908,43.137052 -69.5065,3.16808 -139.1148,-17.893511 -208.41157,-11.636371 -74.99879,6.772001 -145.19229,41.578191 -219.65617,52.794581 -83.44968,12.56991 -252.66882,15.97285 -252.66882,15.97285 0,0 182.32422,29.40999 273.72212,23.63447 50.016,-3.16056 97.00145,-27.85278 146.97039,-31.68614 142.04195,-10.89675 284.19095,27.76402 426.62875,25.29245 41.8468,-0.72612 125.0061,-11.77465 125.0061,-11.77465 z"
       id="path1" /><path
       style="display:inline;opacity:1;mix-blend-mode:normal;fill:url(#linearGradient5);stroke:none;stroke-width:0.1;stroke-linecap:round;stroke-linejoin:round;stroke-dasharray:none;stroke-opacity:1;filter:url(#filter8)"
       d="M 1457.333,87.183401 V 28.985103 c 0,0 -102.4595,-19.8030289 -152.4766,-10.159557 C 1194.7454,40.055359 1107.9084,128.81503 1001.5609,164.38691 905.81423,196.41296 704.60279,224 704.60279,224 H 589.7832 c 0,0 -81.06512,-29.15013 -122.21765,-41.81695 C 379.46648,155.06599 290.8704,128.9936 200.86898,109.08066 134.56062,94.409836 0,75.022858 0,75.022858 V 182.69019 c 0,0 108.43976,12.7803 162.62313,19.47067 C 219.86764,209.22921 334.27718,224 334.27718,224 H 888.2416 c 0,0 153.789,-24.09982 228.0159,-46.66352 78.8626,-23.97289 147.7501,-78.986126 228.8638,-93.63466 36.8262,-6.65054 112.2117,3.481581 112.2117,3.481581 z"
       id="path3" /><path
       style="opacity:1;mix-blend-mode:normal;fill:none;fill-opacity:1;stroke:url(#linearGradient11);stroke-width:3;stroke-linecap:round;stroke-linejoin:round;stroke-dasharray:3, 18;stroke-dashoffset:0;stroke-opacity:1;filter:url(#filter7)"
       d="m 48.984172,149.6064 c 0,0 284.122888,-89.607328 430.725188,-88.93789 156.16127,0.713089 301.76305,98.60546 457.92562,98.92309 62.51682,0.12715 183.48162,-38.85596 183.48162,-38.85596"
       id="path7" /><ellipse
       style="opacity:0.35;mix-blend-mode:normal;fill:url(#radialGradient10);stroke:none;stroke-width:3;stroke-linecap:round;stroke-linejoin:round;stroke-dasharray:3, 18;stroke-dashoffset:0;stroke-opacity:1"
       id="path8"
       cx="1312.5735"
       cy="99.050865"
       rx="142.50777"
       ry="95.574074" /></g></svg>
