<?xml version="1.0" encoding="UTF-8" standalone="no"?>
<!-- Created with Inkscape (http://www.inkscape.org/) -->

<svg
   version="1.1"
   id="svg1"
   width="829.33331"
   height="578.66669"
   viewBox="0 0 829.33331 578.66669"
   xml:space="preserve"
   xmlns="http://www.w3.org/2000/svg"
   xmlns:svg="http://www.w3.org/2000/svg"><defs
     id="defs1"><filter
       style="color-interpolation-filters:sRGB"
       id="filter15"
       x="-0.0033523797"
       y="-0.050136136"
       width="1.0067048"
       height="1.1002723"><feGaussianBlur
         stdDeviation="0.11778869"
         id="feGaussianBlur15" /></filter><filter
       style="color-interpolation-filters:sRGB"
       id="filter16"
       x="-0.0075461737"
       y="-0.077524793"
       width="1.0150923"
       height="1.1550496"><feGaussianBlur
         stdDeviation="0.11778869"
         id="feGaussianBlur16" /></filter><filter
       style="color-interpolation-filters:sRGB"
       id="filter17"
       x="-0.0030009693"
       y="-0.058777037"
       width="1.0060019"
       height="1.1175541"><feGaussianBlur
         stdDeviation="0.11827421"
         id="feGaussianBlur17" /></filter><filter
       style="color-interpolation-filters:sRGB"
       id="filter18"
       x="-0.0025802216"
       y="-0.047230065"
       width="1.0051604"
       height="1.0944601"><feGaussianBlur
         stdDeviation="0.11778869"
         id="feGaussianBlur18" /></filter><filter
       style="color-interpolation-filters:sRGB"
       id="filter19"
       x="-0.0043728431"
       y="-0.061844976"
       width="1.0087457"
       height="1.12369"><feGaussianBlur
         stdDeviation="0.11778869"
         id="feGaussianBlur19" /></filter><filter
       style="color-interpolation-filters:sRGB"
       id="filter20"
       x="-0.0037670406"
       y="-0.051804647"
       width="1.0075341"
       height="1.1036093"><feGaussianBlur
         stdDeviation="0.11778869"
         id="feGaussianBlur20" /></filter><filter
       style="color-interpolation-filters:sRGB"
       id="filter21"
       x="-0.01680424"
       y="-0.16289499"
       width="1.0336085"
       height="1.32579"><feGaussianBlur
         stdDeviation="0.11778869"
         id="feGaussianBlur21" /></filter><filter
       style="color-interpolation-filters:sRGB"
       id="filter22"
       x="-0.00047623445"
       y="-0.0004838256"
       width="1.0009525"
       height="1.0009677"><feGaussianBlur
         stdDeviation="0.0015923208"
         id="feGaussianBlur22" /></filter><filter
       style="color-interpolation-filters:sRGB"
       id="filter23"
       x="-0.00048"
       y="-0.00047999997"
       width="1.00096"
       height="1.00096"><feGaussianBlur
         stdDeviation="0.0015549935"
         id="feGaussianBlur23" /></filter><filter
       style="color-interpolation-filters:sRGB"
       id="filter24"
       x="-0.00048175038"
       y="-0.00047826229"
       width="1.0009635"
       height="1.0009565"><feGaussianBlur
         stdDeviation="0.0015742256"
         id="feGaussianBlur24" /></filter><filter
       style="color-interpolation-filters:sRGB"
       id="filter25"
       x="-0.00047471752"
       y="-0.00048540137"
       width="1.0009494"
       height="1.0009708"><feGaussianBlur
         stdDeviation="0.0016454679"
         id="feGaussianBlur25" /></filter><filter
       style="color-interpolation-filters:sRGB"
       id="filter26"
       x="-0.00047639694"
       y="-0.000483658"
       width="1.0009528"
       height="1.0009673"><feGaussianBlur
         stdDeviation="0.0016646994"
         id="feGaussianBlur26" /></filter><filter
       style="color-interpolation-filters:sRGB"
       id="filter27"
       x="-0.00048000002"
       y="-0.00048000002"
       width="1.00096"
       height="1.00096"><feGaussianBlur
         stdDeviation="0.0016273722"
         id="feGaussianBlur27" /></filter><filter
       style="color-interpolation-filters:sRGB"
       id="filter40"
       x="-0.018086411"
       y="-0.11875256"
       width="1.0361728"
       height="1.2375051"><feGaussianBlur
         stdDeviation="0.25775411"
         id="feGaussianBlur40" /></filter><filter
       style="color-interpolation-filters:sRGB"
       id="filter41"
       x="-0.011775455"
       y="-0.069080483"
       width="1.0235509"
       height="1.138161"><feGaussianBlur
         stdDeviation="0.2563707"
         id="feGaussianBlur41" /></filter><filter
       style="color-interpolation-filters:sRGB"
       id="filter42"
       x="-0.0071678473"
       y="-0.087846205"
       width="1.0143357"
       height="1.1756924"><feGaussianBlur
         stdDeviation="0.2563707"
         id="feGaussianBlur42" /></filter><filter
       style="color-interpolation-filters:sRGB"
       id="filter43"
       x="-0.0053024248"
       y="-0.053937788"
       width="1.0106048"
       height="1.1078756"><feGaussianBlur
         stdDeviation="0.2563707"
         id="feGaussianBlur43" /></filter><filter
       style="color-interpolation-filters:sRGB"
       id="filter44"
       x="-0.0094320785"
       y="-0.068701138"
       width="1.0188642"
       height="1.1374023"><feGaussianBlur
         stdDeviation="0.2563707"
         id="feGaussianBlur44" /></filter><filter
       style="color-interpolation-filters:sRGB"
       id="filter45"
       x="-0.02485322"
       y="-0.21424472"
       width="1.0497064"
       height="1.4284894"><feGaussianBlur
         stdDeviation="0.2563707"
         id="feGaussianBlur45" /></filter><filter
       style="color-interpolation-filters:sRGB"
       id="filter46"
       x="-0.01781039"
       y="-0.11025307"
       width="1.0356208"
       height="1.2205061"><feGaussianBlur
         stdDeviation="0.2563707"
         id="feGaussianBlur46" /></filter><filter
       style="color-interpolation-filters:sRGB"
       id="filter47"
       x="-0.036102164"
       y="-0.18842486"
       width="1.0722043"
       height="1.3768497"><feGaussianBlur
         stdDeviation="0.2563707"
         id="feGaussianBlur47" /></filter><filter
       style="color-interpolation-filters:sRGB"
       id="filter48"
       x="-0.0030937447"
       y="-0.056481882"
       width="1.0061875"
       height="1.1129638"><feGaussianBlur
         stdDeviation="0.2563707"
         id="feGaussianBlur48" /></filter><filter
       style="color-interpolation-filters:sRGB"
       id="filter49"
       x="-0.019085534"
       y="-0.2294214"
       width="1.0381711"
       height="1.4588428"><feGaussianBlur
         stdDeviation="0.2563707"
         id="feGaussianBlur49" /></filter><filter
       style="color-interpolation-filters:sRGB"
       id="filter50"
       x="-0.014410232"
       y="-0.13537432"
       width="1.0288205"
       height="1.2707486"><feGaussianBlur
         stdDeviation="0.2563707"
         id="feGaussianBlur50" /></filter><filter
       style="color-interpolation-filters:sRGB"
       id="filter51"
       x="-0.015392937"
       y="-0.21262709"
       width="1.0307859"
       height="1.4252542"><feGaussianBlur
         stdDeviation="0.2563707"
         id="feGaussianBlur51" /></filter><filter
       style="color-interpolation-filters:sRGB"
       id="filter52"
       x="-0.0083050718"
       y="-0.14401028"
       width="1.0166101"
       height="1.2880206"><feGaussianBlur
         stdDeviation="0.2563707"
         id="feGaussianBlur52" /></filter><filter
       style="color-interpolation-filters:sRGB"
       id="filter53"
       x="-0.007206754"
       y="-0.10397676"
       width="1.0144135"
       height="1.2079535"><feGaussianBlur
         stdDeviation="0.2563707"
         id="feGaussianBlur53" /></filter><filter
       style="color-interpolation-filters:sRGB"
       id="filter77"
       x="-0.0022067922"
       y="-0.0013703123"
       width="1.0024978"
       height="1.0117635"><feGaussianBlur
         stdDeviation="0.094919346"
         id="feGaussianBlur77" /></filter></defs><g
     id="g1"
     style="display:inline"><g
       id="g85"
       style="display:inline"><path
         style="display:inline;opacity:1;fill:#f4f1f8;fill-opacity:1;stroke:none;stroke-width:0.1;stroke-linecap:round;stroke-linejoin:round;stroke-dasharray:none;stroke-dashoffset:0;stroke-opacity:1"
         d="m 198.38316,514.2417 c -33.17778,-20.74563 -63.55608,-78.12536 -69.12461,-125.5833 -3.65703,-31.16711 8.53026,-64.0756 25.07162,-90.74291 21.28077,-34.308 72.75431,-42.89511 90.25613,-80.76521 18.03468,-39.0231 8.86809,-94.02193 34.848,-130.006466 24.55988,-34.017661 70.43568,-53.485767 112.24918,-56.952838 32.20677,-2.670506 64.92769,12.177812 92.50412,29.028584 27.16955,16.602148 43.68335,46.4034 67.03228,68.05157 40.35902,37.41921 97.99707,59.29932 126.039,106.65644 27.02468,45.6392 41.03104,103.70788 31.72693,155.92573 -8.78915,49.32771 -39.6317,106.11756 -79.00119,127.87908 z"
         id="path1" /><path
         style="fill:none;fill-opacity:1;stroke:#fa9897;stroke-width:3;stroke-linecap:round;stroke-linejoin:round;stroke-dasharray:3, 18;stroke-dashoffset:0;stroke-opacity:1;paint-order:normal;filter:url(#filter77)"
         d="m 25.585176,482.03653 c 0,0 20.720873,-9.59218 30.76296,-21.59176 22.30217,-26.6495 34.780288,-69.2049 68.154414,-78.88739 71.51993,-20.74933 101.84387,47.76159 156.16483,46.68845 39.15082,-0.77344 71.97999,-37.63575 111.13605,-38.06892 50.11555,-0.55441 83.54578,48.51926 143.28526,45.56544 81.83446,-4.0463 94.16547,-71.9712 145.6691,-89.85244 41.06629,-14.25757 45.96683,1.369 85.57686,-6.19115 18.35845,-3.50397 42.19982,-23.9064 42.19982,-23.9064"
         id="path77" /><text
         xml:space="preserve"
         style="font-style:normal;font-variant:normal;font-weight:normal;font-stretch:normal;font-size:58.6667px;font-family:'Arial Rounded MT Bold';-inkscape-font-specification:'Arial Rounded MT Bold, ';writing-mode:lr-tb;direction:ltr;opacity:1;fill:#aec0fb;fill-opacity:1;stroke:none;stroke-width:1.2;stroke-linecap:round;stroke-linejoin:round;stroke-dasharray:none;stroke-dashoffset:0;stroke-opacity:1;paint-order:normal"
         x="366.67834"
         y="300.29657"
         id="text85"
         transform="rotate(8.6164392)"><tspan
           id="tspan85"
           x="366.67834"
           y="300.29657"
           style="font-size:58.6667px;fill:#aec0fb;fill-opacity:1">?</tspan></text><text
         xml:space="preserve"
         style="font-size:80px;writing-mode:lr-tb;direction:ltr;opacity:1;fill:none;fill-opacity:1;stroke:#fa9897;stroke-width:1.04153;stroke-linecap:round;stroke-linejoin:round;stroke-dasharray:none;stroke-dashoffset:0;stroke-opacity:1;paint-order:normal"
         x="56.030216"
         y="406.06769"
         id="text77"
         transform="matrix(0.89842218,-0.36570421,0.33867449,0.97520445,0,0)"><tspan
           id="tspan77"
           x="56.030216"
           y="406.06769"
           style="font-style:normal;font-variant:normal;font-weight:normal;font-stretch:normal;font-size:80px;font-family:'Arial Rounded MT Bold';-inkscape-font-specification:'Arial Rounded MT Bold, ';fill:#f9a7a0;fill-opacity:1;stroke:#fa9897;stroke-width:1.04153;stroke-dasharray:none;stroke-dashoffset:0;stroke-opacity:1">?</tspan></text><path
         style="display:inline;fill:#eae9f6;fill-opacity:1;stroke:none;stroke-width:0.1;stroke-linecap:butt;stroke-linejoin:miter;stroke-dasharray:none;stroke-opacity:1"
         d="m 160,171.41376 c 0,0 1.14963,-6.63856 5.5909,-11.00717 5.24712,-5.16129 15.27009,-2.06162 15.27009,-2.06162 0,0 2.77421,-17.86556 17.59392,-19.27119 14.94069,-1.41711 22.34627,16.37093 22.34627,16.37093 0,0 5.89703,-3.26689 11.86362,-1.5375 5.5765,1.61633 7.12784,9.50454 7.12784,9.50454 0,0 4.06084,-0.16534 6.02776,2.1488 2.13117,2.50739 2.67311,6.3598 2.67311,6.3598 z"
         id="path71" /><path
         style="display:inline;fill:#e9e9f6;fill-opacity:1;stroke:none;stroke-width:0.1;stroke-linecap:butt;stroke-linejoin:miter;stroke-dasharray:none;stroke-opacity:1"
         d="m 640.11831,161.70795 c 0,0 1.19319,-9.56043 6.50164,-12.95927 4.32838,-2.77133 15.39361,-0.87921 15.39361,-0.87921 0,0 2.80731,-15.86595 18.06169,-14.54825 16.55893,1.43038 17.63301,19.26779 17.63301,19.26779 0,0 7.0348,-4.03745 11.9666,-1.18243 6.42368,3.71868 6.88787,10.40809 6.88787,10.40809 z"
         id="path72" /></g><g
       id="g62"
       style="display:inline"><rect
         style="display:inline;opacity:1;fill:#4f5b7e;fill-opacity:1;stroke:none;stroke-width:0.0978989;stroke-linecap:round;stroke-linejoin:round;stroke-dasharray:none;stroke-dashoffset:0;stroke-opacity:1"
         id="rect3"
         width="34.816746"
         height="413.51773"
         x="435.16223"
         y="77.979576"
         ry="10.125349" /><path
         style="display:inline;fill:#263554;fill-opacity:1;stroke:none;stroke-width:0.1;stroke-linecap:butt;stroke-linejoin:miter;stroke-dasharray:none;stroke-opacity:1"
         d="m 435.15858,174.39777 34.82744,-1.58524 -0.012,11.25526 c 0,0 -1.74276,0.14294 -2.40155,-0.14774 -1.29481,-0.57131 -1.66847,-2.799 -3.07816,-2.92425 -4.73383,-0.4206 -15.97016,1.71137 -19.70023,2.00081 -1.80423,0.14 -3.65248,0.2048 -5.37599,0.75647 -1.49099,0.47725 -4.25435,2.17296 -4.25435,2.17296 z"
         id="path68" /><path
         style="display:inline;fill:#303d5c;fill-opacity:1;stroke:none;stroke-width:0.1;stroke-linecap:butt;stroke-linejoin:miter;stroke-dasharray:none;stroke-opacity:1"
         d="m 435.16274,264.45612 34.80977,-1.33282 0.008,10.2173 c 0,0 -3.7957,-1.23923 -5.79381,-1.38517 -2.36254,-0.17256 -4.71985,0.41042 -7.07977,0.61563 -2.35992,0.20521 -4.71161,0.67198 -7.07977,0.61563 -1.91491,-0.0456 -3.83449,-0.42024 -5.69459,-0.46712 -1.50837,-0.038 -2.29739,1.74242 -3.69379,2.31402 -1.77967,0.72848 -5.47194,0.65782 -5.47194,0.65782 z"
         id="path69" /><path
         style="display:inline;fill:#303d5d;fill-opacity:1;stroke:none;stroke-width:0.1;stroke-linecap:butt;stroke-linejoin:miter;stroke-dasharray:none;stroke-opacity:1"
         d="m 435.1756,353.58363 34.78357,-3.29126 0.0156,14.00563 c 0,0 -3.22205,-3.97008 -5.40237,-4.77115 -1.92862,-0.70859 -4.14441,-0.10916 -6.15632,0.30782 -1.71684,0.35583 -3.27326,1.71717 -5.00312,2.00302 -1.62051,0.26778 -3.32736,-0.53483 -4.92506,-0.1539 -0.62529,0.14908 -1.05874,0.81876 -1.69298,0.92344 -1.18169,0.19504 -2.39807,-0.97712 -3.53989,-0.61563 -1.03754,0.32847 -1.33099,1.83048 -2.30862,2.30862 -0.74311,0.36344 -1.6634,0.094 -2.46252,0.30782 -1.02169,0.27337 -3.31601,1.11308 -3.31601,1.11308 z"
         id="path70" /><g
         id="g4"
         style="display:inline"><path
           id="rect4"
           style="display:inline;opacity:1;fill:#fa9897;fill-opacity:1;stroke:none;stroke-width:0.101679;stroke-linecap:round;stroke-linejoin:round;stroke-opacity:1"
           transform="matrix(0.99902676,-0.04410819,0.03381804,0.99942801,0,0)"
           d="m 342.78063,128.17165 208.62879,0.0497 c 3.44231,0.16782 32.0477,29.88125 32.0477,29.88125 2.18608,2.21973 2.18838,2.23888 -0.16121,4.76751 0,0 -27.48199,30.26668 -30.32467,30.3836 l -210.19061,0.30392 c -4.01371,0.006 -7.24508,-3.2313 -7.24508,-7.24508 v -50.8958 c 0,-4.01377 3.2313,-7.24603 7.24508,-7.24507 z" /><path
           style="display:inline;opacity:1;mix-blend-mode:normal;fill:#f78787;fill-opacity:1;stroke:none;stroke-width:0.1;stroke-linecap:round;stroke-linejoin:round;stroke-dasharray:none;stroke-dashoffset:0;stroke-opacity:1;filter:url(#filter21)"
           d="m 340.03794,122.73434 16.82271,0.11385 -16.80394,1.62158 z"
           id="path8" /><path
           style="display:inline;opacity:1;mix-blend-mode:normal;fill:#fca6a5;fill-opacity:1;stroke:none;stroke-width:0.1;stroke-linecap:round;stroke-linejoin:round;stroke-dasharray:none;stroke-dashoffset:0;stroke-opacity:1;filter:url(#filter20)"
           d="m 340.23656,129.94569 c 0,0 6.32621,-0.66715 9.50246,-0.75479 3.07835,-0.0849 6.15886,0.34691 9.23587,0.22255 4.95642,-0.20031 9.8427,-1.37071 14.79964,-1.55786 3.78231,-0.1428 7.56516,0.31389 11.35011,0.33383 3.93238,0.0207 7.90367,0.34315 11.7952,-0.22255 1.78996,-0.2602 3.43287,-1.24127 5.22996,-1.44658 4.35245,-0.49724 13.13051,0.55637 13.13051,0.55637 0,0 -7.87741,-0.25604 -11.57266,0.89021 -0.77777,0.24126 -1.32534,1.02206 -2.11423,1.22403 -3.05514,0.78218 -6.30815,-0.36924 -9.45842,-0.22255 -4.14085,0.19281 -8.21421,1.18986 -12.35159,1.44658 -5.03494,0.31241 -10.08886,0.12206 -15.13347,0.11128 -3.19011,-0.007 -6.41786,-0.60396 -9.5697,-0.11128 -1.04299,0.16304 -1.96586,0.81239 -3.00444,1.00148 -2.84847,0.51862 -5.78768,0.476 -8.67949,0.33383 -1.04359,-0.0513 -3.10531,-0.42713 -3.10531,-0.42713 l -0.0544,-1.37742 z"
           id="path9" /><path
           style="display:inline;opacity:1;mix-blend-mode:normal;fill:#fcb5b4;fill-opacity:1;stroke:none;stroke-width:0.1;stroke-linecap:round;stroke-linejoin:round;stroke-dasharray:none;stroke-dashoffset:0;stroke-opacity:1;filter:url(#filter19)"
           d="m 340.72944,144.23282 c 0,0 6.60855,-0.26913 9.89978,-0.5761 2.60649,-0.2431 5.17684,-0.83422 7.78929,-1.00148 5.66346,-0.36259 11.35025,0.0405 17.02516,0 2.59663,-0.0186 5.20206,0.11032 7.78928,-0.11128 2.84349,-0.24355 5.60783,-1.1699 8.45694,-1.3353 4.55839,-0.26462 13.6869,0.55638 13.6869,0.55638 0,0 -4.16945,1.46556 -6.34271,1.7804 -5.21314,0.75524 -10.53407,0.14988 -15.80113,0.22256 -2.74479,0.0379 -5.51332,-0.25073 -8.23439,0.11127 -1.48033,0.19694 -2.86102,0.90407 -4.33974,1.11276 -3.74787,0.52893 -7.56634,0.23726 -11.35011,0.33382 -6.1836,0.1578 -18.5525,0.40126 -18.5525,0.40126 l -0.0268,-1.49429 z"
           id="path10" /><path
           style="display:inline;opacity:1;mix-blend-mode:normal;fill:#f48889;fill-opacity:1;stroke:none;stroke-width:0.1;stroke-linecap:round;stroke-linejoin:round;stroke-dasharray:none;stroke-dashoffset:0;stroke-opacity:1;filter:url(#filter18)"
           d="m 341.32705,160.90443 c 0,0 16.74366,-0.50414 25.1033,-1.00148 5.16276,-0.30715 10.29546,-1.24574 15.4673,-1.22403 5.10099,0.0214 10.14648,1.16734 15.24475,1.3353 6.89694,0.22722 13.81404,0.0456 20.69725,-0.4451 5.21776,-0.37197 10.35815,-1.5592 15.57857,-1.89168 5.81176,-0.37015 17.47026,-0.11128 17.47026,-0.11128 0,0 -3.2156,1.87084 -5.0074,2.22551 -2.65716,0.52597 -5.42265,-0.43393 -8.12311,-0.22255 -2.63277,0.20608 -5.16433,1.15757 -7.78929,1.44658 -3.09898,0.3412 -6.27669,-0.20684 -9.34715,0.33383 -1.3054,0.22986 -2.46774,1.06269 -3.78336,1.22403 -4.28081,0.52496 -8.60329,-0.62438 -12.90797,-0.8902 -2.0392,-0.12593 -4.0773,-0.36489 -6.12015,-0.33383 -1.74942,0.0266 -3.48437,0.56392 -5.22995,0.4451 -1.85843,-0.1265 -3.59653,-1.06541 -5.4525,-1.22403 -5.14355,-0.43958 -10.30835,0.59299 -15.4673,0.77893 -1.70552,0.0615 -3.43293,-0.15488 -5.11868,0.11128 -1.14753,0.18118 -2.18883,0.83278 -3.33826,1.00148 -2.27532,0.33395 -4.6177,-0.28963 -6.89909,0 -1.17806,0.14956 -2.26881,0.76345 -3.44954,0.8902 -3.81519,0.40955 -11.50271,-0.4451 -11.50271,-0.4451 l -0.025,-2.00296 z"
           id="path11" /><path
           style="display:inline;opacity:1;mix-blend-mode:normal;fill:#fca7a5;fill-opacity:1;stroke:none;stroke-width:0.1;stroke-linecap:round;stroke-linejoin:round;stroke-dasharray:none;stroke-dashoffset:0;stroke-opacity:1;filter:url(#filter17)"
           d="m 479.82012,121.62416 c 0,0 11.58461,-0.14093 17.35898,-0.55637 4.31843,-0.31069 8.58002,-1.32741 12.90797,-1.44659 3.93653,-0.1084 7.8627,0.45903 11.7952,0.66766 3.7456,0.19872 7.48832,0.50455 11.23883,0.55637 8.49525,0.11738 16.99279,-0.21773 25.4821,-0.55637 2.5616,-0.10218 5.159,0.0311 7.67801,-0.44511 2.14322,-0.4052 6.21998,-2.03229 6.21998,-2.03229 l 1.87397,1.73354 c 0,0 -5.20087,1.31247 -7.8587,1.59934 -12.11938,1.30809 -24.42044,-0.52038 -36.5656,0.52165 -2.03953,0.17498 -4.02017,0.87971 -6.06563,0.95965 -4.23839,0.16565 -8.44445,-1.0767 -12.68541,-1.00148 -2.27709,0.0404 -4.51481,0.63667 -6.78781,0.77893 -3.443,0.21548 -6.89904,0.0785 -10.34862,0.11128 -4.48806,0.0427 -13.46434,0.11127 -13.46434,0.11127 -0.38067,-0.18424 -0.95863,-0.61864 -0.77893,-1.00148 z"
           id="path12" /><path
           style="display:inline;opacity:1;mix-blend-mode:normal;fill:#fcb3b1;fill-opacity:1;stroke:none;stroke-width:0.1;stroke-linecap:round;stroke-linejoin:round;stroke-dasharray:none;stroke-dashoffset:0;stroke-opacity:1;filter:url(#filter16)"
           d="m 552.31018,135.03451 c 0,0 12.68811,-0.63487 19.01895,-1.14113 2.9638,-0.23701 5.90594,-0.73944 8.87551,-0.88755 2.8406,-0.14168 8.53238,0 8.53238,0 0.37136,0.29292 0.65647,0.63931 0.88033,0.97499 0.21525,0.32276 0.21425,0.88519 -0.0571,1.16246 0,0 -7.33043,0.6151 -11.00394,0.77879 -6.88342,0.30672 -13.8132,1.08564 -20.66726,0.38037 -1.89703,-0.1952 -5.57887,-1.26793 -5.57887,-1.26793 z"
           id="path13" /><path
           style="display:inline;opacity:1;mix-blend-mode:normal;fill:#f68184;fill-opacity:1;stroke:none;stroke-width:0.1;stroke-linecap:round;stroke-linejoin:round;stroke-dasharray:none;stroke-dashoffset:0;stroke-opacity:1;filter:url(#filter15)"
           d="m 491.32276,154.43384 c 0,0 14.54685,-0.43743 21.8084,-0.88755 5.5875,-0.34635 11.14587,-1.10652 16.73667,-1.39472 6.37471,-0.32861 12.76567,-0.18128 19.14574,-0.38038 5.96176,-0.18605 11.91319,-0.78436 17.87781,-0.76076 2.91592,0.0115 8.73669,0.44106 8.73669,0.44106 l -1.02275,1.22458 c 0,0 -12.41358,0.27741 -18.61814,0.48984 -7.018,0.24028 -14.09403,1.86607 -21.04763,0.88755 -1.19113,-0.16762 -2.22132,-1.18425 -3.42341,-1.14114 -2.42377,0.0869 -4.34245,2.31056 -6.72003,2.78945 -10.19242,2.05293 -31.19107,0.12679 -31.19107,0.12679 -0.85873,-0.23973 -2.50626,-0.53174 -2.28228,-1.39472 z"
           id="path14" /><ellipse
           style="display:inline;opacity:1;mix-blend-mode:normal;fill:#fcdcda;fill-opacity:1;stroke:none;stroke-width:0.094811;stroke-linecap:round;stroke-linejoin:round;stroke-dasharray:none;stroke-dashoffset:0;stroke-opacity:1;filter:url(#filter22)"
           id="path4"
           cx="450.51498"
           cy="123.72166"
           rx="4.0122781"
           ry="3.949326" /><ellipse
           style="display:inline;mix-blend-mode:normal;fill:#fee8e7;fill-opacity:1;stroke:none;stroke-width:0.0925914;stroke-linecap:round;stroke-linejoin:round;stroke-dasharray:none;stroke-dashoffset:0;stroke-opacity:1;filter:url(#filter23)"
           id="path4-1-5"
           cx="451.01227"
           cy="157.25826"
           rx="3.8874836"
           ry="3.8874838" /></g><g
         id="g5"><path
           id="rect4-7"
           style="display:inline;fill:#bfdad8;fill-opacity:1;stroke:none;stroke-width:0.0949464;stroke-linecap:round;stroke-linejoin:round;stroke-opacity:1"
           d="m 512.21857,195.2735 -176.18487,6.95212 c -2.95738,0.28569 -29.96117,31.43068 -29.96117,31.43068 -1.80546,2.31911 -1.80676,2.33856 0.30275,4.81745 0,0 30.33863,29.63117 32.78965,29.65373 l 175.30258,-6.70862 c 3.45511,-0.13222 6.12547,-3.5128 5.98741,-7.57317 l -1.75055,-51.4869 c -0.13805,-4.06039 -3.03075,-7.22139 -6.4858,-7.08526 z" /><path
           style="display:inline;fill:#b0d2cf;fill-opacity:1;stroke:none;stroke-width:0.1;stroke-linecap:butt;stroke-linejoin:miter;stroke-dasharray:none;stroke-opacity:1;filter:url(#filter53)"
           d="m 320.08918,218.64826 c 0,0 8.02488,-0.0666 12.03044,-0.27987 4.25711,-0.22669 8.48647,-0.86905 12.74524,-1.06211 4.73932,-0.21485 9.48849,-0.0369 14.23218,-0.10621 1.62877,-0.0238 3.2651,0.0587 4.88567,-0.10621 2.5423,-0.25871 4.99409,-1.17142 7.54094,-1.38073 4.12888,-0.33933 8.31908,0.75195 12.4266,0.21242 1.53327,-0.2014 2.92933,-1.06003 4.46083,-1.27452 5.25919,-0.73657 15.93155,0 15.93155,0 l 0.31863,2.44283 c 0,0 -13.42813,-1.45397 -19.96754,-0.21242 -1.20137,0.22809 -2.19859,1.14627 -3.39873,1.38074 -4.10009,0.80104 -8.362,-0.23817 -12.53281,0 -3.4154,0.19504 -6.78017,0.98436 -10.19619,1.16831 -5.44436,0.29317 -10.91761,-0.48914 -16.35639,-0.10621 -1.92788,0.13574 -3.80573,0.74172 -5.73536,0.84968 -5.72455,0.32028 -17.18979,-0.60703 -17.18979,-0.60703 z"
           id="path27" /><path
           style="display:inline;fill:#d0e2e1;fill-opacity:1;stroke:none;stroke-width:0.1;stroke-linecap:butt;stroke-linejoin:miter;stroke-dasharray:none;stroke-opacity:1;filter:url(#filter52)"
           d="m 305.77947,234.72477 c 0,0 10.34088,0.28806 15.5067,0.10621 5.96186,-0.20988 11.88275,-1.13701 17.84333,-1.38073 7.85308,-0.3211 15.76593,0.751 23.57869,-0.10621 1.65665,-0.18177 3.22861,-0.88406 4.88567,-1.0621 3.76649,-0.40467 11.36451,0 11.36451,0 0.56645,0 0.56616,1.68124 0,1.69936 0,0 -8.85476,0.1913 -13.27629,0.42484 -3.36775,0.17788 -6.72277,0.5557 -10.08998,0.74347 -4.66935,0.26038 -9.34476,0.40841 -14.01976,0.53106 -4.84912,0.12722 -9.70072,0.13038 -14.55081,0.21242 -3.68211,0.0623 -7.36425,0.12589 -11.04587,0.21242 -2.54933,0.0599 -5.10418,0.40214 -7.64715,0.21242 -1.00418,-0.0749 -2.97388,-0.53105 -2.97388,-0.53105 -0.18508,-0.33338 0.10836,-0.84942 0.42484,-1.06211 z"
           id="path28" /><path
           style="display:inline;fill:#b6d5d2;fill-opacity:1;stroke:none;stroke-width:0.1;stroke-linecap:butt;stroke-linejoin:miter;stroke-dasharray:none;stroke-opacity:1;filter:url(#filter51)"
           d="m 405.15835,231.71665 c -0.54824,-0.37118 -1.09395,-1.28613 -0.73765,-1.84415 0,0 7.98695,-0.53784 11.98693,-0.64545 3.50261,-0.0942 7.00906,0.0959 10.51162,0 2.24623,-0.0615 4.48408,-0.35745 6.73112,-0.36883 3.44579,-0.0174 10.32721,0.46104 10.32721,0.46104 0.40362,0.42204 0.40052,1.32695 0,1.75194 0,0 -7.24851,0.55018 -10.88045,0.64545 -4.5167,0.11848 -9.03622,-0.10405 -13.55446,-0.0922 -2.55124,0.007 -5.10199,0.0768 -7.65319,0.0922 -2.24367,0.0135 -6.73113,0 -6.73113,0 z"
           id="path29" /><path
           style="display:inline;fill:#a9d0ca;fill-opacity:1;stroke:none;stroke-width:0.1;stroke-linecap:butt;stroke-linejoin:miter;stroke-dasharray:none;stroke-opacity:1;filter:url(#filter50)"
           d="m 479.64284,214.92127 c -1.42201,-0.43854 -4.09284,-1.23589 -3.60002,-2.64001 0,0 9.44473,0.88989 14.16009,0.6 1.94283,-0.11944 3.81676,-0.84795 5.76003,-0.96 3.1987,-0.18443 6.41979,0.86933 9.60006,0.48 1.78358,-0.21835 3.37571,-1.34776 5.16003,-1.56001 2.55572,-0.30402 7.70877,0.43827 7.70877,0.43827 0.31721,0.32501 0.33135,1.0098 0.0443,1.36174 0,0 -6.49489,1.37771 -9.79312,1.68001 -6.17467,0.56594 -12.4013,0.0932 -18.60011,0.24 -3.48111,0.0825 -7.11262,1.38617 -10.44007,0.36 z"
           id="path30" /><path
           style="display:inline;fill:#c8dfdd;fill-opacity:1;stroke:none;stroke-width:0.1;stroke-linecap:butt;stroke-linejoin:miter;stroke-dasharray:none;stroke-opacity:1;filter:url(#filter49)"
           d="m 487.32289,227.16135 c -0.44743,0.52594 -0.17304,1.60107 0.36,2.04001 0,0 8.71951,-0.28071 13.08008,-0.24 3.2421,0.0303 6.47785,0.34569 9.72006,0.36 2.83821,0.0125 8.51132,-0.24 8.51132,-0.24 0.54495,-0.60804 0.41137,-1.89862 -0.19855,-2.44147 0,0 -7.62102,0.29399 -11.43279,0.40146 -3.75938,0.10599 -7.51922,0.22575 -11.28007,0.24 -2.92027,0.0111 -8.76005,-0.12 -8.76005,-0.12 z"
           id="path31" /><path
           style="display:inline;fill:#a7ccca;fill-opacity:1;stroke:none;stroke-width:0.1;stroke-linecap:butt;stroke-linejoin:miter;stroke-dasharray:none;stroke-opacity:1;filter:url(#filter48)"
           d="m 519.38708,243.51417 c 0.58942,0.8136 0.6393,2.3058 -0.0742,3.0131 0,0 -23.25341,0.11817 -34.87004,0.55419 -6.0864,0.22845 -12.15048,0.96683 -18.24011,1.08001 -3.64027,0.0677 -7.28191,-0.3814 -10.92006,-0.24 -4.41864,0.17174 -8.78919,1.00719 -13.20008,1.32001 -5.71072,0.405 -11.44264,0.42506 -17.1601,0.72 -5.88322,0.30349 -11.75485,0.81893 -17.64011,1.08001 -4.35739,0.1933 -8.72979,0.0449 -13.08007,0.36 -1.36581,0.0989 -2.71299,0.39986 -4.08003,0.48 -3.31433,0.19429 -6.66218,0.38276 -9.96006,0 -1.38783,-0.16107 -2.68997,-0.81935 -4.08002,-0.96 -2.70737,-0.27395 -5.46115,-0.10763 -8.16005,0.24 -1.05859,0.13635 -2.06169,0.58157 -3.12002,0.72 -7.1432,0.93431 -14.41241,0.2353 -21.60013,0.72001 -2.36681,0.15961 -4.70913,0.64215 -7.08004,0.72 -2.24023,0.0736 -4.47935,-0.18192 -6.72004,-0.24 -2.4795,-0.0643 -7.44004,-0.12 -7.44004,-0.12 -0.46076,-0.22216 -1.15894,-0.70785 -0.9749,-1.18512 0,0 4.39373,-0.79101 6.61493,-0.97489 2.11316,-0.17493 4.23974,-0.1 6.36004,-0.12 2.95988,-0.0279 5.92241,0.11855 8.88005,0 5.49326,-0.22018 10.94865,-1.05854 16.4401,-1.32001 5.31461,-0.25305 10.64687,-0.52076 15.96009,-0.24 2.65563,0.14033 5.26307,0.84797 7.92005,0.96 2.19951,0.0927 4.4079,-0.0375 6.60004,-0.24 1.89269,-0.17481 3.74808,-0.65737 5.64003,-0.84 4.46374,-0.43088 8.96069,-0.38614 13.44008,-0.60001 4.72075,-0.22539 9.43864,-0.50967 14.16009,-0.72 7.31814,-0.32601 14.63907,-0.58794 21.96013,-0.84001 3.91954,-0.13495 7.83933,-0.26619 11.76007,-0.36 2.31969,-0.0555 4.65042,0.103 6.96004,-0.12 3.88172,-0.37478 7.63682,-1.68151 11.52007,-2.04001 4.50106,-0.41553 9.05206,0.21161 13.56008,-0.12 2.89983,-0.21331 5.73931,-0.99953 8.64005,-1.20001 6.74395,-0.46609 13.59214,-0.98438 20.28012,0 0.58685,0.0864 1.70404,0.51273 1.70404,0.51273 z"
           id="path32" /><ellipse
           style="display:inline;mix-blend-mode:normal;fill:#e3ebe9;fill-opacity:1;stroke:none;stroke-width:0.0937359;stroke-linecap:round;stroke-linejoin:round;stroke-dasharray:none;stroke-dashoffset:0;stroke-opacity:1;filter:url(#filter24)"
           id="path4-6-7"
           cx="450.29156"
           cy="214.3645"
           rx="3.9212646"
           ry="3.9498634" /><ellipse
           style="display:inline;mix-blend-mode:normal;fill:#e5eceb;fill-opacity:1;stroke:none;stroke-width:0.0979727;stroke-linecap:round;stroke-linejoin:round;stroke-dasharray:none;stroke-dashoffset:0;stroke-opacity:1;filter:url(#filter25)"
           id="path4-1-6"
           cx="450.5545"
           cy="246.40697"
           rx="4.1594453"
           ry="4.0678945" /></g><g
         id="g6"><path
           id="rect4-7-5"
           style="display:inline;fill:#aec0fb;fill-opacity:1;stroke:none;stroke-width:0.0944659;stroke-linecap:round;stroke-linejoin:round;stroke-opacity:1"
           d="m 374.76658,293.1509 173.30534,-15.89434 c 2.94609,-0.11464 33.68691,26.19177 33.68691,26.19177 1.98831,2.05384 1.99132,2.07292 0.12727,4.81124 0,0 -25.2106,33.68841 -27.62929,34.04024 l -175.85866,16.65455 c -3.42508,0.32437 -6.36051,-2.65514 -6.58343,-6.69454 l -2.8268,-51.22077 c -0.22292,-4.0394 2.35432,-7.55846 5.77866,-7.88812 z" /><path
           style="display:inline;fill:#9eb3f9;fill-opacity:1;stroke:none;stroke-width:0.1;stroke-linecap:butt;stroke-linejoin:miter;stroke-dasharray:none;stroke-opacity:1;filter:url(#filter47)"
           d="m 369.66254,303.47327 16.50456,-1.31525 c 0.30661,-0.0244 0.0975,0.69273 -0.11445,0.91563 0,0 -6.46578,1.27207 -9.72858,1.7168 -2.17307,0.2962 -6.54902,0.6324 -6.54902,0.6324 -0.49431,-0.42354 -0.76139,-1.89787 -0.11251,-1.94958 z"
           id="path33" /><path
           style="display:inline;fill:#becbfc;fill-opacity:1;stroke:none;stroke-width:0.1;stroke-linecap:butt;stroke-linejoin:miter;stroke-dasharray:none;stroke-opacity:1;filter:url(#filter46)"
           d="m 369.93304,310.74205 c 0,0 6.40978,-0.66904 9.59574,-1.14454 2.99023,-0.44629 5.93159,-1.19516 8.9274,-1.60235 5.31528,-0.72246 16.02353,-1.4879 16.02353,-1.4879 0,0 -1.31846,1.81758 -2.28908,2.28908 -3.17962,1.54456 -7.01107,0.92053 -10.52975,1.25899 -3.65537,0.35161 -7.43647,-0.13431 -10.98756,0.80117 -0.77562,0.20433 -1.38937,0.86661 -2.17462,1.03009 -2.77417,0.57755 -8.49665,-0.27085 -8.49665,-0.27085 z"
           id="path34" /><path
           style="display:inline;fill:#bfcbfb;fill-opacity:1;stroke:none;stroke-width:0.1;stroke-linecap:butt;stroke-linejoin:miter;stroke-dasharray:none;stroke-opacity:1;filter:url(#filter45)"
           d="m 370.79537,325.59047 c 0,0 9.16169,-1.1901 13.76938,-1.45733 3.65657,-0.21207 10.98756,-0.11445 10.98756,-0.11445 0,0 -7.0923,1.39356 -10.6442,2.06017 -1.25768,0.23604 -2.50252,0.5718 -3.77698,0.68672 -2.43181,0.21928 -4.88346,0.0222 -7.32504,0 -0.97573,-0.009 -2.92684,-0.0533 -2.92684,-0.0533 z"
           id="path35" /><path
           style="display:inline;fill:#a2b3f8;fill-opacity:1;stroke:none;stroke-width:0.1;stroke-linecap:butt;stroke-linejoin:miter;stroke-dasharray:none;stroke-opacity:1;filter:url(#filter44)"
           d="m 371.75085,343.61767 c 0,0 9.8637,-0.9015 14.75961,-1.62973 1.8429,-0.27412 3.6386,-0.85767 5.49378,-1.03009 2.24127,-0.20831 4.51529,0.24561 6.75278,0 3.14673,-0.34542 6.13564,-1.62169 9.27076,-2.06017 4.46629,-0.62466 9.01079,-0.43353 13.50554,-0.80117 4.39654,-0.35961 8.7808,-1.88555 13.16219,-1.37345 0.80294,0.0939 2.28907,0.80118 2.28907,0.80118 0,0 -3.13602,1.5032 -4.80705,1.94571 -4.16745,1.10359 -8.51586,1.45221 -12.81883,1.71681 -3.69389,0.22714 -7.4387,-0.64028 -11.10202,-0.11445 -1.81582,0.26064 -3.46731,1.23637 -5.26487,1.60235 -2.81973,0.57409 -5.71793,0.659 -8.58404,0.91563 -2.62882,0.23538 -5.25832,0.52957 -7.89731,0.57227 -1.90884,0.0309 -3.83252,-0.49698 -5.72269,-0.22891 -1.55284,0.22023 -2.91893,1.21675 -4.4637,1.4879 -1.45861,0.25603 -4.44124,0.11445 -4.44124,0.11445 z"
           id="path36" /><path
           style="display:inline;fill:#9eaef8;fill-opacity:1;stroke:none;stroke-width:0.1;stroke-linecap:butt;stroke-linejoin:miter;stroke-dasharray:none;stroke-opacity:1;filter:url(#filter43)"
           d="m 452.32139,335.69298 c 0,0 6.97319,0.19011 10.30084,-0.68673 1.10553,-0.29131 1.97565,-1.23353 3.09026,-1.48789 3.05,-0.69601 6.29502,0.48745 9.38521,0 1.34669,-0.21243 2.54733,-1.03075 3.89143,-1.259 3.19797,-0.54307 6.5308,0.31532 9.72857,-0.2289 1.46295,-0.24898 2.77583,-1.10211 4.23479,-1.37345 3.81266,-0.70908 12.57736,-0.59672 18.86205,-0.96742 1.45806,-0.086 2.92913,-0.0652 4.37207,-0.29157 3.01155,-0.47248 5.88856,-2.33022 8.87282,-2.21515 3.0418,0.0108 6.15783,1.51293 9.09643,0.72725 0.71563,-0.19133 1.12383,-1.03927 1.83126,-1.25899 4.59073,-1.42583 9.74271,1.10443 14.42117,0 0.9133,-0.2156 1.60823,-1.02891 2.51799,-1.25899 4.99028,-1.26206 15.43441,-0.49056 15.43441,-0.49056 l -1.65132,2.09291 c 0,0 -20.17736,1.43508 -30.26444,2.17462 -5.64392,0.88657 -11.83911,1.48495 -17.7929,1.74067 -3.94684,0.16951 -8.1224,-1.44469 -11.85063,-0.13832 -0.51173,0.17931 -0.74937,0.84487 -1.25899,1.03009 -3.11971,1.13388 -6.74726,-0.72981 -9.95748,0.11445 -0.84218,0.22149 -1.44983,1.02663 -2.28908,1.25899 -3.93692,1.09002 -8.46773,-1.09396 -12.24655,0.45782 -0.5745,0.23592 -0.7966,1.02886 -1.37345,1.25899 -4.11113,1.64009 -8.92058,-0.55596 -13.27664,0.22891 -0.67688,0.12196 -1.26726,0.5738 -1.94571,0.68672 -3.98934,0.66399 -12.13211,-0.11445 -12.13211,-0.11445 z"
           id="path37" /><path
           style="display:inline;fill:#c0cdfc;fill-opacity:1;stroke:none;stroke-width:0.1;stroke-linecap:butt;stroke-linejoin:miter;stroke-dasharray:none;stroke-opacity:1;filter:url(#filter42)"
           d="m 482.65165,299.18222 c 0,0 3.20035,-1.5127 4.92151,-1.83126 11.47988,-2.12473 23.47442,1.36997 35.02286,-0.34336 1.01687,-0.15086 1.94632,-0.69425 2.95981,-0.86641 4.67546,-0.7942 9.53779,0.0871 14.20826,-0.73595 1.28938,-0.22721 2.46837,-0.91105 3.75564,-1.14987 3.20324,-0.59429 6.55381,-0.0499 9.74991,-0.68139 0.89964,-0.17776 1.70898,-0.70172 2.6111,-0.8664 3.7757,-0.68923 11.50472,-0.46884 11.50472,-0.46884 l 1.10642,0.87757 c 0,0 -1.46411,0.92696 -2.28896,1.14442 -2.84442,0.74987 -5.87627,0.28742 -8.81294,0.45782 -1.55767,0.0904 -3.11642,0.1694 -4.67127,0.29947 -3.103,0.25958 -6.24429,0.32168 -9.2921,0.95952 -0.98019,0.20513 -1.8734,0.75185 -2.86134,0.91563 -3.99029,0.66151 -8.12828,-0.34507 -12.1321,0.22891 -2.22415,0.31885 -4.27412,1.49357 -6.50377,1.77136 -7.30938,0.91068 -14.72833,-0.44142 -22.0941,-0.39792 -2.06843,0.0122 -4.13565,0.10698 -6.20265,0.18502 -3.66154,0.13825 -10.981,0.50171 -10.981,0.50171 z"
           id="path38" /><path
           style="display:inline;fill:#a3b5f9;fill-opacity:1;stroke:none;stroke-width:0.1;stroke-linecap:butt;stroke-linejoin:miter;stroke-dasharray:none;stroke-opacity:1;filter:url(#filter41)"
           d="m 528.20426,311.77213 c 0,0 8.31915,0.31829 11.78874,-1.60235 0.52139,-0.28862 0.59886,-1.1339 1.14454,-1.37344 1.43397,-0.62949 3.18796,0.66318 4.6926,0.2289 0.89486,-0.25828 1.38509,-1.37808 2.28908,-1.60235 1.49267,-0.37032 3.06509,0.8477 4.57815,0.57227 0.8059,-0.1467 1.38515,-0.92606 2.17462,-1.14454 2.65147,-0.73378 5.60729,0.3384 8.24068,-0.45781 0.72026,-0.21777 1.21602,-0.96083 1.94571,-1.14454 1.92525,-0.48472 4.08265,0.89866 5.9516,0.22891 0.86494,-0.30996 1.21524,-1.4703 2.06017,-1.83126 2.27146,-0.97039 7.38599,-0.5984 7.38599,-0.5984 0,0 -4.69771,0.78337 -6.69927,1.97184 -0.55671,0.33056 -0.77528,1.12568 -1.37345,1.37345 -2.29106,0.94899 -5.09388,-0.80479 -7.43949,0 -0.82289,0.28234 -1.24158,1.30776 -2.06017,1.60235 -2.40621,0.86593 -5.17131,-0.32259 -7.66841,0.22891 -0.85114,0.18798 -1.54584,0.87471 -2.40353,1.03008 -1.61598,0.29273 -3.29589,-0.4622 -4.92151,-0.22891 -2.43631,0.34964 -4.55986,1.96462 -6.98168,2.40353 -4.16843,0.75546 -12.70437,0.34336 -12.70437,0.34336 z"
           id="path39" /><path
           style="display:inline;fill:#b6c5fb;fill-opacity:1;stroke:none;stroke-width:0.1;stroke-linecap:butt;stroke-linejoin:miter;stroke-dasharray:none;stroke-opacity:1;filter:url(#filter40)"
           d="m 582.20779,306.61301 c 0,0 -4.59608,1.34081 -6.96302,1.61106 -2.16059,0.24669 -4.38077,-0.36896 -6.52387,0 -1.23675,0.21292 -2.31977,1.00181 -3.54807,1.25899 -5.20388,1.08959 -10.84086,2.75104 -15.90907,1.14454 -0.51689,-0.16384 -1.25899,-1.03009 -1.25899,-1.03009 0,0 3.36936,0.0899 5.03596,-0.11445 1.55257,-0.19039 3.02622,-0.83452 4.57815,-1.03009 2.57504,-0.32451 5.26592,0.40447 7.78286,-0.2289 1.24095,-0.31228 2.18706,-1.42774 3.43362,-1.71681 4.34239,-1.00699 13.37243,0.10575 13.37243,0.10575 z"
           id="path40" /><ellipse
           style="display:inline;mix-blend-mode:normal;fill:#e7e5f9;fill-opacity:1;stroke:none;stroke-width:0.0991209;stroke-linecap:round;stroke-linejoin:round;stroke-dasharray:none;stroke-dashoffset:0;stroke-opacity:1;filter:url(#filter26)"
           id="path4-6"
           cx="450.33188"
           cy="302.64896"
           rx="4.1932244"
           ry="4.1302724" /><circle
           style="display:inline;mix-blend-mode:normal;fill:#e2e6fb;fill-opacity:1;stroke:none;stroke-width:0.0969011;stroke-linecap:round;stroke-linejoin:round;stroke-dasharray:none;stroke-dashoffset:0;stroke-opacity:1;filter:url(#filter27)"
           id="path4-1"
           cx="451.19537"
           cy="335.68753"
           r="4.0684304" /></g></g><g
       id="g63"><ellipse
         style="display:inline;opacity:1;fill:#d7d7ee;fill-opacity:1;stroke:none;stroke-width:0.136978;stroke-linecap:round;stroke-linejoin:round;stroke-dasharray:none;stroke-dashoffset:0;stroke-opacity:1"
         id="path2"
         ry="27.47406"
         rx="230.19777"
         cy="525.29517"
         cx="408.74408" /><ellipse
         style="display:inline;opacity:1;fill:#c5c7e5;fill-opacity:1;stroke:none;stroke-width:0.112482;stroke-linecap:round;stroke-linejoin:round;stroke-dasharray:none;stroke-dashoffset:0;stroke-opacity:1"
         id="path3"
         cx="280.96103"
         cy="525.61719"
         rx="55.630981"
         ry="8.2855148" /><g
         id="g80"><path
           style="display:inline;fill:#c1d7da;fill-opacity:1;stroke:none;stroke-width:0.1;stroke-linecap:butt;stroke-linejoin:miter;stroke-dasharray:none;stroke-opacity:1"
           d="m 396.17382,506.48928 c 0,0 -14.69753,-2.71397 -19.73806,-7.65233 -3.56878,-3.49644 -8.1734,-9.51839 -5.70298,-13.86101 1.4683,-2.58104 5.90932,-1.91517 8.81354,-1.29621 5.63571,1.20111 10.44433,8.72877 14.59111,9.27008 0.11817,-4.72687 -5.44172,-13.01293 -8.7872,-20.57003 -2.55787,-5.77798 -3.04114,-12.29682 0.8915,-15.68188 3.90296,-3.35951 10.11202,2.27965 13.10068,8.18823 3.09397,6.11679 3.31383,17.71518 5.36132,21.54116 0.69392,-3.11344 1.288,-8.70107 4.85443,-11.98863 1.51261,-1.39433 3.94352,-2.85013 5.82911,-2.02751 3.86562,1.68645 2.37195,7.35024 1.90139,11.0619 -0.9254,7.29928 -9.04962,20.13274 -9.04962,20.13274 z"
           id="path73" /><path
           style="display:inline;fill:#a3c3c1;fill-opacity:1;stroke:#a3c3c1;stroke-width:1.3;stroke-linecap:round;stroke-linejoin:round;stroke-dasharray:none;stroke-opacity:1"
           d="m 380.05454,490.66262 c 0,0 6.07185,3.64485 8.78862,5.89481 3.28999,2.72468 8.99666,9.12642 8.99666,9.12642"
           id="path78" /><path
           style="display:inline;fill:#a7c7c6;fill-opacity:1;stroke:#a7c7c6;stroke-width:1.3;stroke-linecap:round;stroke-linejoin:round;stroke-dasharray:none;stroke-opacity:1"
           d="m 391.66281,466.56232 c 0,0 4.5906,11.39375 6.50152,17.22606 2.06892,6.31454 5.36227,19.19976 5.36227,19.19976"
           id="path79" /><path
           style="display:inline;fill:#a2cac5;fill-opacity:1;stroke:#a2cac5;stroke-width:1.3;stroke-linecap:round;stroke-linejoin:round;stroke-dasharray:none;stroke-opacity:1"
           d="m 408.12083,489.88535 c 0,0 0.54958,-2.317 0.96461,-3.42971 0.46915,-1.25782 1.71485,-3.64406 1.71485,-3.64406"
           id="path80" /></g><g
         id="g84"><path
           style="display:inline;fill:#bbbfdd;fill-opacity:1;stroke:none;stroke-width:0.1;stroke-linecap:butt;stroke-linejoin:miter;stroke-dasharray:none;stroke-opacity:1"
           d="m 546.23287,520.45156 c -1.42222,-1.41858 8.49878,-3.00472 12.94137,-3.35118 1.95707,-0.15263 4.11094,-0.31473 5.86095,0.5746 0.94301,0.47922 3.00234,1.79758 2.1119,2.36856 -1.29924,0.83312 -17.97243,0.85247 -20.91422,0.40802 z"
           id="path76" /><path
           style="display:inline;fill:#c2dcda;fill-opacity:1;stroke:none;stroke-width:0.1;stroke-linecap:butt;stroke-linejoin:miter;stroke-dasharray:none;stroke-opacity:1"
           d="m 526.51913,511.11486 c 0,0 -23.13847,-22.79026 -29.11195,-34.16426 -2.96754,-5.65045 -6.59434,-14.99168 -1.68709,-19.07247 4.23472,-3.52152 11.52084,1.11526 15.91714,4.43287 9.10425,6.87041 17.8698,29.18011 17.8698,29.18011 0,0 -0.9207,-13.84882 -2.68252,-19.84939 -3.85101,-13.11616 -6.18855,-22.36659 -6.18038,-34.84861 0.007,-11.19343 3.4695,-25.48405 13.16388,-25.97524 9.02415,-0.45723 12.60457,14.01239 14.63497,22.81704 2.48014,10.75492 -1.29088,26.99432 -3.01178,40.38234 -0.8025,6.24326 -3.40369,18.57459 -3.40369,18.57459 0,0 7.84672,-18.94104 14.52554,-26.77012 6.07408,-7.12018 18.21873,-16.43027 25.83585,-10.99235 5.28695,3.77439 1.39055,13.56816 -1.39161,19.43821 -5.465,11.53052 -18.96991,17.10236 -27.82406,26.29057 -1.42564,1.47942 -4.06439,4.63367 -4.06439,4.63367 0,0 11.77135,-5.49217 17.04496,-6.7559 3.61164,-0.86546 9.39252,-0.29288 10.6744,3.19277 1.55406,4.22577 -3.60366,8.83494 -7.34974,11.33277 -6.75061,4.50119 -25.2478,6.72711 -25.2478,6.72711 z"
           id="path74" /><path
           style="display:inline;fill:#a4c3c5;fill-opacity:1;stroke:#a4c3c5;stroke-width:1.2;stroke-linecap:round;stroke-linejoin:round;stroke-dasharray:none;stroke-opacity:1"
           d="m 510.21268,473.75703 c 0,0 5.4194,7.69253 7.65735,11.81896 3.44608,6.35404 8.82261,19.80923 8.82261,19.80923"
           id="path81" /><path
           style="display:inline;fill:#9fc4c7;fill-opacity:1;stroke:#9fc4c7;stroke-width:1.2;stroke-linecap:round;stroke-linejoin:round;stroke-dasharray:none;stroke-opacity:1"
           d="m 534.34999,434.80441 c 0,0 1.43037,9.74006 1.66464,14.64885 0.59524,12.47259 0.0623,24.9889 -0.66586,37.45444 -0.42594,7.29221 -2.16403,21.8068 -2.16403,21.8068"
           id="path82" /><path
           style="display:inline;fill:#9ec1c2;fill-opacity:1;stroke:#9ec1c2;stroke-width:1.2;stroke-linecap:round;stroke-linejoin:round;stroke-dasharray:none;stroke-opacity:1"
           d="m 565.64525,472.09239 c 0,0 -6.19934,6.71094 -8.98906,10.32078 -4.15033,5.37044 -7.60662,11.24359 -11.48603,16.81288 -2.68404,3.85321 -8.15675,11.48602 -8.15675,11.48602"
           id="path83" /><path
           style="display:inline;fill:#9dc1be;fill-opacity:1;stroke:#9dc1be;stroke-width:1.2;stroke-linecap:round;stroke-linejoin:round;stroke-dasharray:none;stroke-opacity:1"
           d="m 566.97696,504.5529 c 0,0 -7.41924,2.66468 -10.98663,4.32807 -4.00555,1.86769 -11.65249,6.32564 -11.65249,6.32564"
           id="path84" /></g><path
         style="display:inline;fill:#c7cee3;fill-opacity:1;stroke:none;stroke-width:0.1;stroke-linecap:butt;stroke-linejoin:miter;stroke-dasharray:none;stroke-opacity:1"
         d="m 363.99179,519.65896 c -0.96556,-4.81617 10.70277,-8.48232 16.88783,-11.19516 9.03826,-3.96428 28.75057,-7.07494 28.75057,-7.07494 0,0 -0.1727,-12.50767 15.53634,-16.5155 26.18789,-6.68129 30.3952,5.47663 30.3952,5.47663 0,0 6.81873,-9.13038 19.98973,-6.94191 15.51052,2.5772 19.66924,11.0523 19.66924,11.0523 0,0 6.11818,-2.75154 12.30781,-0.50688 7.66522,2.77979 10.07053,8.31398 10.07053,8.31398 0,0 5.59362,0.1138 15.42198,5.16783 11.70202,6.01753 15.5003,13.17967 15.5003,13.17967 z"
         id="path75" /></g><g
       id="g53"
       style="display:inline"><path
         id="path53"
         style="display:inline;opacity:1;fill:#757ba2;fill-opacity:1;stroke:none;stroke-width:0.116701;stroke-linecap:round;stroke-linejoin:round"
         d="m 355.31474,435.25927 c 0,40.97599 -31.19038,75.78719 -65.1054,77.21823 -45.56727,1.92271 -80.11779,-26.71817 -77.01013,-74.24599 2.95396,-45.17726 31.63307,-75.97075 71.47037,-73.4794 38.19797,2.38883 70.64515,29.53117 70.64516,70.50716 z" /><ellipse
         style="display:inline;opacity:1;fill:#6f7496;fill-opacity:1;stroke:none;stroke-width:0.142846;stroke-linecap:round;stroke-linejoin:round;stroke-dasharray:none;stroke-dashoffset:0;stroke-opacity:1"
         id="path55"
         cx="400.43457"
         cy="325.43622"
         rx="63.936024"
         ry="72.101692"
         transform="matrix(0.94798503,0.31831491,-0.31935668,0.94763459,0,0)" /><ellipse
         style="display:inline;opacity:1;fill:#fdf2ee;fill-opacity:1;stroke:none;stroke-width:0.103111;stroke-linecap:round;stroke-linejoin:round;stroke-dasharray:none;stroke-dashoffset:0;stroke-opacity:1"
         id="path54"
         cx="456.34634"
         cy="218.31407"
         rx="50.134602"
         ry="59.112106"
         transform="matrix(0.84189991,0.53963371,-0.49725896,0.86760217,0,0)" /><g
         id="g67"><rect
           style="display:inline;opacity:1;fill:#425378;fill-opacity:1;stroke:none;stroke-width:0.133092;stroke-linecap:round;stroke-linejoin:round;stroke-dasharray:none;stroke-dashoffset:0;stroke-opacity:1"
           id="rect56"
           width="3.8331053"
           height="12.451389"
           x="360.72906"
           y="382.93073"
           transform="matrix(0.99981131,0.01942551,-0.1976852,0.98026556,0,0)"
           ry="1.4843532" /><rect
           style="display:inline;fill:#425378;fill-opacity:1;stroke:none;stroke-width:0.133092;stroke-linecap:round;stroke-linejoin:round;stroke-dasharray:none;stroke-dashoffset:0;stroke-opacity:1"
           id="rect56-6"
           width="3.8331053"
           height="12.451389"
           x="358.40094"
           y="478.3573"
           transform="matrix(0.99981131,0.01942551,-0.1976852,0.98026556,0,0)"
           ry="1.4843532" /><rect
           style="display:inline;fill:#425378;fill-opacity:1;stroke:none;stroke-width:0.119459;stroke-linecap:round;stroke-linejoin:round;stroke-dasharray:none;stroke-dashoffset:0;stroke-opacity:1"
           id="rect56-6-5-0"
           width="3.8325408"
           height="10.03266"
           x="391.18475"
           y="454.53827"
           transform="matrix(-0.34823837,0.93740601,0.98685699,0.16159605,0,0)"
           ry="1.196012" /><rect
           style="display:inline;fill:#425378;fill-opacity:1;stroke:none;stroke-width:0.119459;stroke-linecap:round;stroke-linejoin:round;stroke-dasharray:none;stroke-dashoffset:0;stroke-opacity:1"
           id="rect56-6-5"
           width="3.8325408"
           height="10.03266"
           x="-396.47076"
           y="-380.65894"
           transform="matrix(0.34526534,-0.93850511,-0.98736424,-0.15846721,0,0)"
           ry="1.196012" /></g><g
         id="g61"
         style="display:inline"><path
           id="path56"
           style="display:inline;opacity:1;fill:#fa9897;fill-opacity:1;stroke:none;stroke-width:0.1;stroke-linecap:round;stroke-linejoin:round"
           transform="matrix(0.78713043,-0.01308921,0.01355648,0.81069953,74.386951,58.568202)"
           d="m 283.47881,425.82102 -24.49243,50.92614 -22.93292,-17.69108 22.93289,17.69111 -22.93289,-17.69111 z" /><path
           id="path56-3"
           style="display:inline;fill:#787fa6;fill-opacity:1;stroke:none;stroke-width:0.0798939;stroke-linecap:round;stroke-linejoin:round"
           d="m 247.82691,469.2386 18.58837,-41.60638 18.29102,14.04197 -18.291,-14.042 18.291,14.042 z" /><ellipse
           style="display:inline;opacity:1;fill:#494f60;fill-opacity:1;stroke:none;stroke-width:0.152482;stroke-linecap:round;stroke-linejoin:round;stroke-dasharray:none;stroke-dashoffset:0;stroke-opacity:1"
           id="path57"
           cx="377.88803"
           cy="419.34735"
           rx="4.9525528"
           ry="6.2258077"
           transform="matrix(0.99706418,0.07657042,-0.24417811,0.9697304,0,0)" /></g><g
         id="g65"
         style="display:inline"><ellipse
           style="display:inline;fill:none;fill-rule:evenodd;stroke:#70779d;stroke-width:7;stroke-dasharray:none;stroke-opacity:1"
           id="path65"
           cx="296.34283"
           cy="346.79263"
           rx="13.854369"
           ry="13.812749" /><path
           style="display:inline;fill:#656c90;fill-opacity:1;stroke:none;stroke-width:0.1;stroke-linecap:butt;stroke-linejoin:miter;stroke-dasharray:none;stroke-opacity:1"
           d="m 285.33835,365.46259 c 0,0 1.40384,-10.4213 2.28672,-10.87836 0.88288,-0.45706 3.64632,-1.76212 5.60244,-1.74716 2.25207,0.0172 4.833,0.3957 6.41849,2.10993 l -3.48885,12.19674 z"
           id="path63" /><path
           style="display:inline;fill:#4a5375;fill-opacity:1;stroke:none;stroke-width:0.1;stroke-linecap:butt;stroke-linejoin:miter;stroke-dasharray:none;stroke-opacity:1"
           d="m 300.71341,367.87274 c 0,0 0.35627,-11.639 -1.06728,-12.92547 L 296.157,367.144 Z"
           id="path64" /></g><g
         id="g68"><path
           style="display:inline;fill:#303d5d;fill-opacity:1;stroke:none;stroke-width:0.1;stroke-linecap:butt;stroke-linejoin:miter;stroke-dasharray:none;stroke-opacity:1"
           d="m 303.74227,502.99491 c 1.05946,-0.35933 3.40719,-0.41263 4.45185,-0.0274 0,0 1.71559,16.52397 3.03107,17.31838 1.79909,1.08646 3.36183,-0.19788 5.9001,0.80046 1.03377,0.4066 1.74268,1.73127 1.82107,2.85824 0.0842,1.21075 -0.37663,2.97947 -1.51245,3.31204 -3.19911,0.93671 -6.68612,0.5541 -8.7888,0.0908 -1.22403,-0.26969 -2.04018,-1.2789 -2.24723,-2.46873 -1.8328,-10.5325 -2.65561,-21.88376 -2.65561,-21.88376 z"
           id="path66" /><path
           style="display:inline;fill:#303d5d;fill-opacity:1;stroke:none;stroke-width:0.1;stroke-linecap:butt;stroke-linejoin:miter;stroke-dasharray:none;stroke-opacity:1"
           d="m 252.58139,505.19326 c 1.31616,-0.37401 4.48058,0.46542 5.05053,1.65772 l -2.86363,16.91161 c -0.20542,1.21313 -1.73334,2.30793 -2.95364,2.46527 -2.88076,0.37142 -4.84238,0.52899 -7.55524,0.23538 -1.25454,-0.13578 -2.67734,-1.8304 -2.65392,-3.12605 0.0275,-1.52384 1.40857,-2.75261 2.8948,-3.09021 1.94374,-0.44152 3.79351,0.0129 5.53387,-1.03783 1.16771,-0.70501 2.54723,-14.01589 2.54723,-14.01589 z"
           id="path67" /></g></g></g></svg>
