<?xml version="1.0" encoding="UTF-8" standalone="no"?>
<!-- Created with Inkscape (http://www.inkscape.org/) -->

<svg
   version="1.1"
   id="svg1"
   width="659.03809"
   height="175.36224"
   viewBox="0 0 659.03809 175.36224"
   xml:space="preserve"
   xmlns:xlink="http://www.w3.org/1999/xlink"
   xmlns="http://www.w3.org/2000/svg"
   xmlns:svg="http://www.w3.org/2000/svg"><defs
     id="defs1"><linearGradient
       id="linearGradient10"><stop
         style="stop-color:#f96e76;stop-opacity:1;"
         offset="0"
         id="stop11" /><stop
         style="stop-color:#f37475;stop-opacity:0.10196079;"
         offset="1"
         id="stop12" /></linearGradient><linearGradient
       id="linearGradient5"><stop
         style="stop-color:#4b9b8a;stop-opacity:0.80000001;"
         offset="0"
         id="stop5" /><stop
         style="stop-color:#6b9e9e;stop-opacity:0.05;"
         offset="1"
         id="stop6" /></linearGradient><linearGradient
       id="linearGradient3"><stop
         style="stop-color:#363a95;stop-opacity:1;"
         offset="0"
         id="stop3" /><stop
         style="stop-color:#434379;stop-opacity:0.10196079;"
         offset="1"
         id="stop4" /></linearGradient><linearGradient
       id="linearGradient7"><stop
         style="stop-color:#e65c7b;stop-opacity:1;"
         offset="0"
         id="stop7" /><stop
         style="stop-color:#d9a5b1;stop-opacity:0.40000001;"
         offset="1"
         id="stop8" /></linearGradient><linearGradient
       id="linearGradient1"><stop
         style="stop-color:#f2d5e4;stop-opacity:1;"
         offset="0"
         id="stop1" /><stop
         style="stop-color:#f2d5e4;stop-opacity:0.40000001;"
         offset="1"
         id="stop2" /></linearGradient><linearGradient
       xlink:href="#linearGradient1"
       id="linearGradient2"
       x1="1699.0592"
       y1="344.52533"
       x2="1435.5027"
       y2="426.40469"
       gradientUnits="userSpaceOnUse" /><linearGradient
       xlink:href="#linearGradient7"
       id="linearGradient8"
       x1="1700.9486"
       y1="315.1131"
       x2="1232.5084"
       y2="402.07056"
       gradientUnits="userSpaceOnUse" /><linearGradient
       xlink:href="#linearGradient3"
       id="linearGradient4"
       x1="1699.4816"
       y1="276.84735"
       x2="1272.9049"
       y2="388.59494"
       gradientUnits="userSpaceOnUse" /><linearGradient
       xlink:href="#linearGradient5"
       id="linearGradient6"
       x1="1456.5238"
       y1="357.65781"
       x2="1047.9875"
       y2="347.86633"
       gradientUnits="userSpaceOnUse" /><radialGradient
       xlink:href="#linearGradient9"
       id="radialGradient10"
       cx="270.88025"
       cy="111.72676"
       fx="270.88025"
       fy="111.72676"
       r="38.101646"
       gradientTransform="matrix(1,0,0,0.67408668,-2.5612245,30.408029)"
       gradientUnits="userSpaceOnUse" /><linearGradient
       id="linearGradient9"><stop
         style="stop-color:#ffdee7;stop-opacity:0.5;"
         offset="0"
         id="stop9" /><stop
         style="stop-color:#ff7799;stop-opacity:0;"
         offset="1"
         id="stop10" /></linearGradient><linearGradient
       xlink:href="#linearGradient10"
       id="linearGradient12"
       x1="1700.1677"
       y1="377.24368"
       x2="1029.5011"
       y2="327.98157"
       gradientUnits="userSpaceOnUse" /><radialGradient
       xlink:href="#linearGradient9-6"
       id="radialGradient10-9"
       cx="270.88025"
       cy="111.72676"
       fx="270.88025"
       fy="111.72676"
       r="38.101646"
       gradientTransform="matrix(3.1197017,0,0,2.0380568,730.08451,93.297204)"
       gradientUnits="userSpaceOnUse" /><linearGradient
       id="linearGradient9-6"><stop
         style="stop-color:#ffdee7;stop-opacity:0.49726775;"
         offset="0"
         id="stop9-7" /><stop
         style="stop-color:#ff7799;stop-opacity:0;"
         offset="1"
         id="stop10-0" /></linearGradient></defs><g
     id="g1"
     style="display:inline"
     transform="translate(-1040.9848,-254.12091)"><path
       style="display:inline;opacity:0.97;mix-blend-mode:screen;fill:url(#linearGradient2);stroke:none;stroke-width:0.2;stroke-linecap:round;stroke-linejoin:round;stroke-dasharray:none;stroke-opacity:1"
       d="m 1700,331.77907 c 0,0 -43.413,-10.30244 -68.795,-7.709 -27.1703,1.72759 -49.9611,9.21141 -71.4632,21.48405 -20.2123,10.24426 -35.0246,28.97933 -54.2755,40.93276 -23.3415,14.49341 -42.5133,29.70282 -73.6672,36.97409 0,0 43.6219,8.19277 65.2908,5.46662 14.8719,-1.87102 29.4807,-7.28023 42.4849,-14.73446 27.3184,-15.6594 55.2813,-44.3293 88.4891,-53.68183 23.0883,-6.5025 49.9957,-5.21416 71.959,-0.27035 z"
       id="path1" /><path
       style="display:inline;opacity:0.97;mix-blend-mode:screen;fill:url(#linearGradient8);stroke:none;stroke-width:0.2;stroke-linecap:round;stroke-linejoin:round;stroke-dasharray:none;stroke-opacity:1"
       d="m 1700,331.73914 v -31.70975 c -43.0835,-5.36385 -82.0815,-11.46497 -138.64,5.79216 -48.9845,14.94616 -86.9603,53.32064 -126.3608,62.56854 -25.6251,6.01461 -54.9722,-0.90453 -82.3151,1.43191 -13.4419,1.14861 -27.2363,1.77164 -39.9993,6.17184 -25.7418,8.87482 -57.7279,23.17618 -79.2279,26.75736 22.9618,-0.91763 43.4668,0.39643 64.8846,3.64126 23.172,3.51059 44.955,14.16392 68.2155,17.03049 21.5841,2.65997 44.0788,5.04453 65.242,0.038 31.1,-7.22987 50.3256,-22.48059 73.667,-36.974 19.2511,-11.95361 34.1009,-30.59504 54.276,-40.93343 21.5286,-12.04871 44.2589,-19.852 71.4629,-21.48357 25.3661,-2.63374 68.795,7.709 68.795,7.709 z"
       id="path2" /><path
       style="display:inline;opacity:0.97;mix-blend-mode:screen;fill:url(#linearGradient4);stroke:none;stroke-width:0.2;stroke-linecap:round;stroke-linejoin:round;stroke-dasharray:none;stroke-opacity:1"
       d="m 1700,300.029 v -36.19299 c -37.5184,-5.36385 -82.0815,-11.46497 -106.0339,-9.24764 -33.6196,1.04967 -64.8058,8.65148 -93.9523,22.31056 -32.662,15.30655 -42.0603,28.65783 -91.397,56.00332 -46.2484,25.63378 -77.0372,32.98761 -134.3152,57.34727 0,0 13.0821,-5.05414 38.3834,-14.25552 12.5721,-4.57212 26.5492,-5.18865 39.999,-6.353 27.2975,-2.36676 55.6576,4.99498 82.315,-1.251 39.5668,-9.27072 77.2186,-47.64681 126.361,-62.568 56.5733,-17.17746 96.2859,-10.92241 138.64,-5.79216 z"
       id="path8" /><path
       style="display:inline;opacity:0.97;mix-blend-mode:screen;fill:url(#linearGradient6);stroke:none;stroke-width:0.2;stroke-linecap:round;stroke-linejoin:round;stroke-dasharray:none;stroke-opacity:1"
       d="m 1456.7981,360.58968 c 0,0 -21.0937,-0.40875 -29.185,-1.45689 -41.997,-5.44024 -78.2243,-27.26066 -118.7305,-26.11037 -41.7521,1.18567 -84.8587,23.21223 -120.6579,33.81529 -29.1181,8.62421 -56.5564,3.9545 -84.241,-0.74987 -19.8544,-3.37381 -57.7279,-19.44841 -57.2013,-19.44841 0,0 8.5221,20.69465 16.2151,28.18786 28.0211,11.67981 64.8846,25.30448 99.0454,29.87138 23.6038,3.15376 47.9129,1.89681 71.4141,-1.94767 21.4509,-3.50907 53.3132,-17.84933 79.228,-26.757 12.8897,-4.43057 26.5572,-5.02336 39.999,-6.172 27.3428,-2.33652 48.73,4.92574 82.315,-1.432 7.5829,-1.43546 21.7991,-7.80032 21.7991,-7.80032 z"
       id="path4" /><path
       d="m 1042.4853,339.12838 c 0,0 57.568,-47.44522 135.4395,-51.45038 79.6706,1.47507 148.5373,69.16195 204.7438,97.18852 m 45.1822,-7.34703 c 24.666,11.42597 69.38,34.43262 106.4736,32.91918 44.362,-1.81 83.179,-35.46246 127.4626,-38.66137 12.7449,-0.92065 37.9023,5.73893 37.9023,5.73893"
       id="path6"
       style="fill:none;stroke:url(#linearGradient12);stroke-width:3.00094;stroke-linecap:round;stroke-linejoin:round;stroke-dasharray:3.00094, 18.0057;stroke-dashoffset:0;stroke-opacity:1" /><ellipse
       style="opacity:0.2;mix-blend-mode:screen;fill:url(#radialGradient10-9);stroke:none;stroke-width:2.43775;stroke-linecap:round;stroke-linejoin:round;stroke-dasharray:2.43775, 14.6266;stroke-dashoffset:0;stroke-opacity:1"
       id="path8-7"
       cx="1575.1487"
       cy="321.00214"
       rx="117.62891"
       ry="76.454514" /></g></svg>
