<?xml version="1.0" encoding="UTF-8" standalone="no"?>
<!-- Created with Inkscape (http://www.inkscape.org/) -->

<svg
   width="961.3634"
   height="350.85764"
   viewBox="0 0 254.36072 92.831085"
   version="1.1"
   id="svg1"
   xml:space="preserve"
   xmlns:xlink="http://www.w3.org/1999/xlink"
   xmlns="http://www.w3.org/2000/svg"
   xmlns:svg="http://www.w3.org/2000/svg"><defs
     id="defs1"><linearGradient
       id="linearGradient1"><stop
         style="stop-color:#fd908f;stop-opacity:0.1;"
         offset="0"
         id="stop2" /><stop
         style="stop-color:#f87782;stop-opacity:1;"
         offset="1"
         id="stop1" /></linearGradient><linearGradient
       id="linearGradient4484"><stop
         style="stop-color:#c0d7d5;stop-opacity:1;"
         offset="0"
         id="stop4484" /><stop
         style="stop-color:#b9e2d9;stop-opacity:0.05;"
         offset="1"
         id="stop4485" /></linearGradient><linearGradient
       id="linearGradient4482"><stop
         style="stop-color:#dbe7e4;stop-opacity:1;"
         offset="0"
         id="stop4482" /><stop
         style="stop-color:#dbe7e4;stop-opacity:0.50196081;"
         offset="1"
         id="stop4483" /></linearGradient><linearGradient
       id="linearGradient4480"><stop
         style="stop-color:#fdf1f1;stop-opacity:0.89999998;"
         offset="0"
         id="stop4480" /><stop
         style="stop-color:#fdf1f1;stop-opacity:0.1;"
         offset="1"
         id="stop4481" /></linearGradient><linearGradient
       id="linearGradient4478"><stop
         style="stop-color:#fcb4b5;stop-opacity:1;"
         offset="0"
         id="stop4478" /><stop
         style="stop-color:#fdb2b1;stop-opacity:0.1;"
         offset="1"
         id="stop4479" /></linearGradient><linearGradient
       id="linearGradient4471"><stop
         style="stop-color:#c8cdf7;stop-opacity:1;"
         offset="0"
         id="stop4471" /><stop
         style="stop-color:#cad3fb;stop-opacity:0.05;"
         offset="1"
         id="stop4472" /></linearGradient><linearGradient
       id="swatch6"><stop
         style="stop-color:#c2dee0;stop-opacity:1;"
         offset="0"
         id="stop6" /></linearGradient><linearGradient
       xlink:href="#linearGradient4471"
       id="linearGradient4472"
       x1="381.44379"
       y1="136.57985"
       x2="128.29761"
       y2="108.3879"
       gradientUnits="userSpaceOnUse"
       spreadMethod="pad" /><linearGradient
       xlink:href="#linearGradient4478"
       id="linearGradient4479"
       x1="378.53738"
       y1="70.604897"
       x2="256.46921"
       y2="108.96918"
       gradientUnits="userSpaceOnUse" /><linearGradient
       xlink:href="#linearGradient4480"
       id="linearGradient4481"
       x1="379.69992"
       y1="78.742783"
       x2="134.1104"
       y2="138.03302"
       gradientUnits="userSpaceOnUse" /><linearGradient
       xlink:href="#linearGradient4482"
       id="linearGradient4483"
       x1="380.33728"
       y1="49.67894"
       x2="228.51186"
       y2="118.85089"
       gradientUnits="userSpaceOnUse" /><linearGradient
       xlink:href="#linearGradient4484"
       id="linearGradient4485"
       x1="333.4884"
       y1="135.70793"
       x2="164.04616"
       y2="83.683632"
       gradientUnits="userSpaceOnUse" /><filter
       style="color-interpolation-filters:sRGB"
       id="filter1"
       x="-0.0021985435"
       y="-0.0046909744"
       width="1.0043971"
       height="1.0093819"><feGaussianBlur
         stdDeviation="0.138966"
         id="feGaussianBlur1" /></filter><filter
       style="color-interpolation-filters:sRGB"
       id="filter2"
       x="-0.0018831165"
       y="-0.007372886"
       width="1.0037662"
       height="1.0147458"><feGaussianBlur
         stdDeviation="0.11857032"
         id="feGaussianBlur2" /></filter><filter
       style="color-interpolation-filters:sRGB"
       id="filter3"
       x="-0.0020459358"
       y="-0.0055633673"
       width="1.0040919"
       height="1.0111267"><feGaussianBlur
         stdDeviation="0.10736475"
         id="feGaussianBlur3" /></filter><filter
       style="color-interpolation-filters:sRGB"
       id="filter4"
       x="-0.0018645102"
       y="-0.0076142459"
       width="1.003729"
       height="1.0152285"><feGaussianBlur
         stdDeviation="0.19081647"
         id="feGaussianBlur4" /></filter><filter
       style="color-interpolation-filters:sRGB"
       id="filter5"
       x="-0.0016663579"
       y="-0.014778277"
       width="1.0033327"
       height="1.0295566"><feGaussianBlur
         stdDeviation="0.17599544"
         id="feGaussianBlur5" /></filter><filter
       style="color-interpolation-filters:sRGB"
       id="filter6"
       x="-0.0023450112"
       y="-0.0021935595"
       width="1.0030614"
       height="1.0093743"><feGaussianBlur
         stdDeviation="0.072733462"
         id="feGaussianBlur6" /></filter><radialGradient
       xlink:href="#linearGradient9"
       id="radialGradient10"
       cx="270.88025"
       cy="111.72676"
       fx="270.88025"
       fy="111.72676"
       r="38.101646"
       gradientTransform="matrix(1,0,0,0.67408668,-2.5612245,30.408029)"
       gradientUnits="userSpaceOnUse" /><linearGradient
       id="linearGradient9"><stop
         style="stop-color:#ffdee7;stop-opacity:0.5;"
         offset="0"
         id="stop9" /><stop
         style="stop-color:#f37475;stop-opacity:0;"
         offset="1"
         id="stop10" /></linearGradient><linearGradient
       xlink:href="#linearGradient1"
       id="linearGradient2"
       x1="128.34232"
       y1="85.203621"
       x2="372.76959"
       y2="85.203621"
       gradientUnits="userSpaceOnUse" /></defs><g
     id="layer1"
     transform="translate(-126.92002,-45.041348)"><path
       style="display:inline;opacity:1;mix-blend-mode:multiply;fill:url(#linearGradient4485);fill-opacity:1;stroke:none;stroke-width:0.264999;stroke-opacity:1;filter:url(#filter2)"
       d="m 328.27793,85.42564 c -13.14313,3.837776 -24.89571,-0.629081 -41.12692,-0.872366 -25.14777,-0.395958 -46.89163,20.624266 -71.20081,27.965686 -21.7178,7.60892 -38.78813,9.15043 -38.78813,9.15043 0,0 31.53827,2.83876 43.15497,0.63996 10.90269,-1.48479 45.87782,-15.90176 56.93067,-19.3148 4.54753,-1.73998 11.00521,-2.85308 16.95587,-4.100422 6.01483,-1.234508 11.67185,-2.425103 15.39209,-3.531585 7.02853,-1.773683 18.68226,-9.936903 18.68226,-9.936903 z"
       id="path2" /><path
       style="display:inline;opacity:1;mix-blend-mode:multiply;fill:url(#linearGradient4483);fill-opacity:1;stroke:none;stroke-width:0.264999;stroke-opacity:1;filter:url(#filter1)"
       d="m 268.45315,101.16307 c 31.6721,-20.368831 38.92461,-32.508053 56.21998,-43.771275 7.22431,-4.704673 15.88798,-7.820157 24.49584,-8.29914 10.62593,-0.591279 31.65383,3.234737 31.65383,3.234737 v 12.961972 c -9.49179,-1.091389 -15.36735,-0.326967 -21.54572,1.486444 -12.65155,3.609149 -37.5939,25.883732 -49.75714,28.578076 -8.40458,2.664553 -26.34728,5.205436 -32.16645,7.601316 -2.57227,0.7264 -21.58611,7.74793 -24.69905,8.96023 -3.02123,1.14955 -8.48342,3.13666 -13.40552,4.8523 -4.9221,1.71564 -9.30413,3.15982 -10.12582,3.36072 0.50164,-0.37809 22.17344,-7.9317 39.33005,-18.96538 z"
       id="path1" /><path
       style="display:inline;opacity:1;mix-blend-mode:normal;fill:url(#linearGradient4479);fill-opacity:1;stroke:none;stroke-width:0.264999;stroke-opacity:1;filter:url(#filter3)"
       d="m 380.8228,102.12101 c -11.55593,0.36757 -32.02711,-3.804051 -44.77699,-2.769082 -12.74988,1.034972 -18.09991,5.061162 -31.63911,7.201622 -8.32313,1.3527 -30.21619,2.5693 -36.0629,3.09987 -3.37138,0.3081 -11.31349,1.10943 -13.46601,1.43141 3.46774,-1.25209 16.2868,-6.1787 24.62357,-8.8618 5.65267,-1.66265 12.3349,-2.777766 15.83239,-3.579327 5.7868,-1.222936 13.86469,-2.868612 17.49324,-4.35676 5.48112,-2.213222 12.90381,-7.168219 15.43031,-8.849265 8.26333,-5.642397 23.41883,-16.63492 31.05197,-18.666721 10.23418,-3.365447 21.51353,-1.471524 21.51353,-1.471524 0,0 -0.15129,25.212074 0,36.821577 z"
       id="path4" /><path
       style="display:inline;opacity:1;mix-blend-mode:normal;fill:url(#linearGradient4481);fill-opacity:1;stroke:none;stroke-width:0.264999;stroke-opacity:1;filter:url(#filter4)"
       d="m 380.8228,117.86432 c -1.54329,-0.69434 -27.09781,-12.35031 -51.64722,-9.06057 -2.68103,0.53249 -7.25578,1.69896 -11.41115,3.06965 -4.17419,1.37691 -6.67746,2.27821 -9.24487,3.22143 -3.99086,1.43437 -8.17569,2.97984 -12.8657,4.63631 -9.49047,1.67326 -21.0627,-4.17474 -31.23591,-1.87168 -12.57496,2.84678 -23.14681,16.65207 -33.84919,18.71729 -13.39765,2.58532 -33.49436,-1.40585 -46.75757,-3.96045 -11.40481,-2.19666 -38.71442,-3.16315 -48.60761,-0.35448 8.89983,-5.36012 33.39668,-10.96971 41.97616,-10.59659 2.72465,0.2478 9.96073,0.81268 17.81036,1.16971 3.92481,0.17851 9.22861,0.3515 12.66122,0.28383 2.54757,0.0631 7.5,-0.16869 8.80974,-0.3165 2.3919,-0.16911 5.81257,-0.82239 6.53648,-1.00382 2.10897,-0.48119 4.81356,-1.24957 6.16812,-1.69338 1.8356,-0.54002 4.82557,-1.53132 7.11027,-2.30384 2.2847,-0.77633 4.40403,-1.51881 6.11809,-2.14656 4.48742,-1.57548 11.1852,-4.06979 12.52365,-4.57871 17.23273,-2.52569 38.52772,-2.30937 53.22839,-5.18943 19.68771,-3.80588 41.27581,-21.434198 51.48723,-25.447335 4.70508,-1.772182 13.83114,-4.317107 21.18951,-2.600042 z"
       id="path6" /><path
       style="display:inline;opacity:1;mix-blend-mode:normal;fill:url(#linearGradient4472);fill-opacity:1;stroke:none;stroke-width:0.264999;stroke-opacity:1;filter:url(#filter5)"
       d="m 380.8228,133.10352 c 0,0 -5.56731,-2.60997 -14.95517,-4.14893 -9.38786,-1.53896 -28.53586,-3.19512 -42.03284,-1.91059 -13.49698,0.4929 -69.29399,10.17581 -78.64049,9.62937 -20.73002,1.18463 -60.39234,-12.28821 -68.00055,-15.00077 -6.64425,-1.78289 -12.86479,-2.8623 -19.37062,-2.55811 -10.41098,0.48679 -23.47038,4.78496 -30.48072,6.9682 12.04099,-5.42797 18.07371,-10.51213 27.94752,-12.32238 6.04121,-1.12889 20.77892,-1.27901 28.86084,0.44562 14.9806,2.06531 42.84673,14.28795 65.70962,14.29939 27.91192,2.06845 59.2165,-15.944 79.31626,-19.70279 24.77478,-3.47829 50.11338,8.38286 51.64615,9.06101 z"
       id="path3" /><path
       style="opacity:1;fill:none;fill-opacity:1;stroke:url(#linearGradient2);stroke-width:0.79375;stroke-linecap:round;stroke-linejoin:round;stroke-dasharray:0.79375, 4.7625;stroke-dashoffset:0;stroke-opacity:1;paint-order:normal;filter:url(#filter6)"
       d="m 128.91375,124.79447 c 0,0 60.63323,-5.54468 82.50095,-15.73587 19.12308,-7.31895 37.42648,-26.331058 53.65214,-29.029006 19.94748,-5.464976 30.83688,11.637999 46.07601,8.280108 24.43265,-5.383653 49.37164,-32.409565 61.45217,-43.093794"
       id="path7" /><ellipse
       style="opacity:0.45;mix-blend-mode:normal;fill:url(#radialGradient10);stroke:none;stroke-width:0.79375;stroke-linecap:round;stroke-linejoin:round;stroke-dasharray:0.79375, 4.7625;stroke-dashoffset:0;stroke-opacity:1"
       id="path8"
       cx="268.3186"
       cy="105.72137"
       rx="37.705181"
       ry="25.287306" /></g></svg>
